<?xml version="1.0" standalone="no"?>
<!DOCTYPE svg PUBLIC "-//W3C//DTD SVG 20010904//EN"
 "http://www.w3.org/TR/2001/REC-SVG-20010904/DTD/svg10.dtd">
<svg version="1.0" xmlns="http://www.w3.org/2000/svg"
 width="1200.000000pt" height="1200.000000pt" viewBox="0 0 1200.000000 1200.000000"
 preserveAspectRatio="xMidYMid meet">
<metadata>
Created by potrace 1.14, written by Peter Selinger 2001-2017
</metadata>
<g transform="translate(0.000000,1200.000000) scale(0.100000,-0.100000)"
fill="#000000" stroke="none">
<path d="M2499 10076 c1821 -1821 1924 -1926 1928 -1963 2 -21 8 -71 13 -111
5 -40 13 -103 16 -140 5 -57 16 -87 74 -198 55 -107 69 -145 79 -208 9 -65 17
-84 51 -127 36 -45 40 -57 40 -105 0 -40 7 -69 27 -107 23 -44 28 -65 28 -132
1 -84 21 -141 67 -187 16 -16 19 -27 13 -57 -12 -61 -6 -111 20 -169 14 -30
25 -58 25 -62 0 -4 -19 -12 -41 -19 -83 -25 -327 -134 -451 -200 -352 -192
-502 -342 -572 -576 -44 -147 -42 -221 10 -330 63 -135 317 -322 577 -424 132
-53 304 -101 431 -121 462 -74 1151 -84 1615 -24 323 42 674 137 902 245 l110
53 2270 -2270 c1821 -1821 2269 -2264 2269 -2244 0 20 -458 483 -2251 2276
-1498 1498 -2249 2256 -2244 2264 5 8 755 -735 2251 -2231 l2244 -2244 0 5668
0 5667 -5667 0 -5668 0 1892 -1892 c1247 -1247 1890 -1897 1885 -1905 -5 -8
-655 635 -1912 1892 -1517 1517 -1910 1905 -1930 1905 -20 0 353 -378 1899
-1924z m2202 -2191 c108 -213 109 -216 94 -245 -9 -18 -26 -32 -43 -36 -15 -3
-34 -8 -43 -10 -9 -2 -23 4 -31 13 -22 25 -94 172 -102 208 -19 86 -40 301
-31 315 13 22 46 -30 156 -245z m1273 -1214 c-23 -4 -1058 1029 -1086 1084
-14 28 150 -130 541 -520 381 -380 556 -561 545 -564z m-560 490 l489 -489
-109 -6 c-136 -8 -323 -24 -363 -32 -28 -6 -30 -4 -41 36 -12 45 -49 90 -75
90 -9 0 -15 9 -15 25 0 41 -41 115 -68 122 -18 4 -22 10 -17 27 17 59 16 88
-5 156 -13 41 -33 82 -48 97 -19 19 -25 35 -23 59 4 46 -16 111 -41 134 -12
11 -39 25 -60 31 -34 9 -38 14 -39 42 -1 18 -1 36 0 40 1 4 -6 21 -14 37 -9
16 -15 32 -15 35 0 3 0 9 0 14 0 5 -14 23 -32 40 -17 17 -28 31 -22 31 5 0
229 -220 498 -489z m-538 352 c17 -40 15 -136 -2 -153 -5 -5 -23 -12 -39 -16
-45 -8 -104 46 -112 102 l-5 42 53 17 c30 10 61 24 69 31 19 18 17 19 36 -23z
m151 -220 c16 -21 0 -57 -51 -111 -53 -55 -98 -69 -138 -41 -15 11 -29 29 -29
40 -1 10 -2 27 -3 36 -1 11 9 19 29 23 37 8 71 26 109 57 30 25 61 24 83 -4z
m71 -208 c35 -73 30 -111 -22 -161 -30 -28 -64 -49 -102 -60 l-56 -18 -21 29
c-23 31 -30 53 -31 104 -1 33 1 35 56 53 33 11 75 36 100 58 24 22 45 39 49
40 3 0 15 -20 27 -45z m76 -264 c26 -29 13 -70 -37 -118 -49 -47 -152 -104
-173 -96 -7 3 -19 22 -25 42 -17 57 9 91 112 144 46 24 89 45 95 45 6 1 19 -7
28 -17z m123 -222 c10 -49 9 -53 -21 -92 -27 -36 -44 -46 -111 -69 -44 -15
-90 -28 -102 -28 -24 0 -48 29 -58 70 -6 24 -1 28 52 49 66 27 104 53 160 109
33 35 40 38 54 25 9 -8 21 -37 26 -64z m1098 -49 c284 -11 379 -24 553 -76
364 -110 685 -338 798 -569 62 -128 73 -241 33 -355 -42 -119 -206 -264 -424
-373 -303 -151 -695 -247 -1158 -283 -526 -41 -1240 1 -1551 92 -259 75 -485
193 -639 334 -73 67 -101 112 -117 187 -23 106 66 328 175 439 78 79 236 183
427 279 130 66 404 185 427 185 4 0 15 -16 24 -35 10 -22 31 -42 52 -52 31
-15 44 -16 108 -5 103 17 213 74 254 132 18 25 38 53 45 62 14 20 105 33 320
48 125 9 208 7 673 -10z"/>
<path d="M6836 6187 c-22 -16 -13 -63 15 -78 40 -21 81 29 59 71 -12 23 -48
26 -74 7z"/>
<path d="M4910 6173 c-27 -19 -23 -60 7 -80 20 -14 24 -13 48 11 22 22 23 28
14 50 -14 31 -41 38 -69 19z"/>
<path d="M5301 6163 c-114 -2 -190 -8 -198 -14 -20 -17 -16 -57 7 -69 32 -17
1281 -15 1318 2 33 16 41 52 14 67 -20 11 -819 21 -1141 14z"/>
</g>
</svg>
